<svg width="43" height="42" viewBox="0 0 43 42" fill="none" xmlns="http://www.w3.org/2000/svg">
<path d="M9 15H34C37.3137 15 40 12.3137 40 9V9C40 5.68629 37.3137 3 34 3H33.6644C30.1653 3 27.3288 5.83655 27.3288 9.33562V32.6644C27.3288 36.1634 30.1653 39 33.6644 39H34C37.3137 39 40 36.3137 40 33V33C40 29.6863 37.3137 27 34 27H9C5.68629 27 3 29.6863 3 33V33C3 36.3137 5.72711 39 9.04082 39V39C12.3999 39 15.1644 36.2769 15.1644 32.9178V9.08219C15.1644 5.72309 12.3999 3 9.04082 3V3C5.72711 3 3 5.68629 3 9V9C3 12.3137 5.68629 15 9 15Z" stroke="#FFFFFF" stroke-width="5" stroke-linecap="round"/>
</svg>
