<svg width="18" height="31" viewBox="0 0 18 31" fill="none" xmlns="http://www.w3.org/2000/svg">
<path d="M13.7997 0.90909H17.3224V21.7045C17.3224 23.5606 16.9815 25.1373 16.2997 26.4347C15.6179 27.732 14.6567 28.7169 13.4162 29.3892C12.1757 30.0616 10.7126 30.3977 9.02699 30.3977C7.43608 30.3977 6.02036 30.1089 4.77983 29.5312C3.5393 28.9441 2.56392 28.1108 1.85369 27.0312C1.14347 25.9517 0.788352 24.6686 0.788352 23.1818H4.25426C4.25426 24.0057 4.45786 24.7254 4.86506 25.3409C5.28172 25.947 5.84991 26.4205 6.5696 26.7614C7.2893 27.1023 8.10843 27.2727 9.02699 27.2727C10.0402 27.2727 10.902 27.0597 11.6122 26.6335C12.3224 26.2074 12.8622 25.5824 13.2315 24.7585C13.6103 23.9252 13.7997 22.9072 13.7997 21.7045V0.90909Z" fill="white"/>
<path d="M13.7997 0.90909V-0.09091C13.2474 -0.09091 12.7997 0.356805 12.7997 0.90909H13.7997ZM17.3224 0.90909H18.3224C18.3224 0.356805 17.8747 -0.09091 17.3224 -0.09091V0.90909ZM16.2997 26.4347L17.1849 26.8999L16.2997 26.4347ZM13.4162 29.3892L13.8927 30.2684L13.4162 29.3892ZM4.77983 29.5312L4.35203 30.4351L4.3577 30.4378L4.77983 29.5312ZM1.85369 27.0312L1.01828 27.5809L1.85369 27.0312ZM0.788352 23.1818V22.1818C0.236068 22.1818 -0.211648 22.6295 -0.211648 23.1818H0.788352ZM4.25426 23.1818H5.25426C5.25426 22.6295 4.80655 22.1818 4.25426 22.1818V23.1818ZM4.86506 25.3409L4.03104 25.8926C4.03432 25.8976 4.03765 25.9025 4.04101 25.9074L4.86506 25.3409ZM6.5696 26.7614L6.99769 25.8576H6.99769L6.5696 26.7614ZM11.6122 26.6335L11.0977 25.776H11.0977L11.6122 26.6335ZM13.2315 24.7585L12.3212 24.3447L12.319 24.3495L13.2315 24.7585ZM13.7997 1.90909H17.3224V-0.09091H13.7997V1.90909ZM16.3224 0.90909V21.7045H18.3224V0.90909H16.3224ZM16.3224 21.7045C16.3224 23.4407 16.0035 24.8488 15.4145 25.9694L17.1849 26.8999C17.9596 25.4259 18.3224 23.6805 18.3224 21.7045H16.3224ZM15.4145 25.9694C14.8211 27.0985 13.999 27.9359 12.9397 28.51L13.8927 30.2684C15.3145 29.4978 16.4147 28.3655 17.1849 26.8999L15.4145 25.9694ZM12.9397 28.51C11.8714 29.089 10.5785 29.3977 9.02699 29.3977V31.3977C10.8467 31.3977 12.4799 31.0341 13.8927 30.2684L12.9397 28.51ZM9.02699 29.3977C7.55834 29.3977 6.29045 29.1316 5.20196 28.6247L4.3577 30.4378C5.75027 31.0862 7.31382 31.3977 9.02699 31.3977V29.3977ZM5.20762 28.6274C4.12216 28.1136 3.29219 27.3983 2.68911 26.4816L1.01828 27.5809C1.83565 28.8233 2.95644 29.7746 4.35204 30.4351L5.20762 28.6274ZM2.68911 26.4816C2.10172 25.5888 1.78835 24.5034 1.78835 23.1818H-0.211648C-0.211648 24.8337 0.185212 26.3146 1.01828 27.5809L2.68911 26.4816ZM0.788352 24.1818H4.25426V22.1818H0.788352V24.1818ZM3.25426 23.1818C3.25426 24.1782 3.50323 25.0948 4.03104 25.8926L5.69908 24.7892C5.41249 24.356 5.25426 23.8331 5.25426 23.1818H3.25426ZM4.04101 25.9074C4.56582 26.6708 5.27602 27.2551 6.14152 27.6651L6.99769 25.8576C6.42379 25.5858 5.99763 25.2231 5.6891 24.7744L4.04101 25.9074ZM6.14152 27.6651C7.01411 28.0784 7.98304 28.2727 9.02699 28.2727V26.2727C8.23381 26.2727 7.56449 26.1261 6.99769 25.8576L6.14152 27.6651ZM9.02699 28.2727C10.1811 28.2727 11.2297 28.0292 12.1267 27.491L11.0977 25.776C10.5743 26.0901 9.89942 26.2727 9.02699 26.2727V28.2727ZM12.1267 27.491C13.0282 26.9501 13.699 26.1605 14.144 25.1676L12.319 24.3495C12.0255 25.0043 11.6167 25.4647 11.0977 25.776L12.1267 27.491ZM14.1419 25.1723C14.5952 24.175 14.7997 23.0072 14.7997 21.7045H12.7997C12.7997 22.8072 12.6254 23.6753 12.3212 24.3447L14.1419 25.1723ZM14.7997 21.7045V0.90909H12.7997V21.7045H14.7997Z" fill="white"/>
</svg>
