<svg width="23" height="30" viewBox="0 0 23 30" fill="none" xmlns="http://www.w3.org/2000/svg">
<path d="M0.475852 30V0.90909H3.99858V15.3409H4.33949L17.4077 0.90909H22.0099L9.79403 14.0341L22.0099 30H17.7486L7.63494 16.4773L3.99858 20.5682V30H0.475852Z" fill="white"/>
<path d="M0.475852 30H-0.524148C-0.524148 30.5523 -0.0764323 31 0.475852 31V30ZM0.475852 0.90909V-0.09091C-0.0764323 -0.09091 -0.524148 0.356805 -0.524148 0.90909H0.475852ZM3.99858 0.90909H4.99858C4.99858 0.356805 4.55086 -0.09091 3.99858 -0.09091V0.90909ZM3.99858 15.3409H2.99858C2.99858 15.8932 3.4463 16.3409 3.99858 16.3409V15.3409ZM4.33949 15.3409V16.3409C4.62192 16.3409 4.89118 16.2215 5.08075 16.0121L4.33949 15.3409ZM17.4077 0.90909V-0.09091C17.1252 -0.09091 16.856 0.0285183 16.6664 0.237871L17.4077 0.90909ZM22.0099 0.90909L22.7419 1.59039C23.0131 1.29909 23.0857 0.874768 22.9268 0.509904C22.768 0.145041 22.4079 -0.09091 22.0099 -0.09091V0.90909ZM9.79403 14.0341L9.06203 13.3528C8.72976 13.7098 8.70348 14.2544 8.99984 14.6417L9.79403 14.0341ZM22.0099 30V31C22.3904 31 22.738 30.7841 22.9065 30.4429C23.075 30.1018 23.0354 29.6945 22.8041 29.3923L22.0099 30ZM17.7486 30L16.9478 30.5989C17.1366 30.8514 17.4333 31 17.7486 31V30ZM7.63494 16.4773L8.43575 15.8783C8.25583 15.6378 7.97731 15.4909 7.67717 15.4782C7.37704 15.4655 7.08711 15.5884 6.88753 15.8129L7.63494 16.4773ZM3.99858 20.5682L3.25117 19.9038C3.08846 20.0869 2.99858 20.3233 2.99858 20.5682H3.99858ZM3.99858 30V31C4.55086 31 4.99858 30.5523 4.99858 30H3.99858ZM1.47585 30V0.90909H-0.524148V30H1.47585ZM0.475852 1.90909H3.99858V-0.09091H0.475852V1.90909ZM2.99858 0.90909V15.3409H4.99858V0.90909H2.99858ZM3.99858 16.3409H4.33949V14.3409H3.99858V16.3409ZM5.08075 16.0121L18.1489 1.58031L16.6664 0.237871L3.59823 14.6697L5.08075 16.0121ZM17.4077 1.90909H22.0099V-0.09091H17.4077V1.90909ZM21.2779 0.227789L9.06203 13.3528L10.526 14.7154L22.7419 1.59039L21.2779 0.227789ZM8.99984 14.6417L21.2157 30.6077L22.8041 29.3923L10.5882 13.4264L8.99984 14.6417ZM22.0099 29H17.7486V31H22.0099V29ZM18.5494 29.4011L8.43575 15.8783L6.83414 17.0762L16.9478 30.5989L18.5494 29.4011ZM6.88753 15.8129L3.25117 19.9038L4.74599 21.2325L8.38235 17.1416L6.88753 15.8129ZM2.99858 20.5682V30H4.99858V20.5682H2.99858ZM3.99858 29H0.475852V31H3.99858V29Z" fill="white"/>
</svg>
