<svg width="108" height="108" viewBox="0 0 108 108" fill="none" xmlns="http://www.w3.org/2000/svg">
<g clip-path="url(#clip0_204_1999)">
<path d="M56.25 81C58.0402 81 59.7571 80.2888 61.023 79.023C62.2888 77.7571 63 76.0402 63 74.25C63 72.4598 62.2888 70.7429 61.023 69.477C59.7571 68.2112 58.0402 67.5 56.25 67.5C54.4598 67.5 52.7429 68.2112 51.477 69.477C50.2112 70.7429 49.5 72.4598 49.5 74.25C49.5 76.0402 50.2112 77.7571 51.477 79.023C52.7429 80.2888 54.4598 81 56.25 81Z" fill="#716B6B"/>
<path d="M27 0C23.4196 0 19.9858 1.42232 17.4541 3.95406C14.9223 6.4858 13.5 9.91958 13.5 13.5V94.5C13.5 98.0804 14.9223 101.514 17.4541 104.046C19.9858 106.578 23.4196 108 27 108H81C84.5804 108 88.0142 106.578 90.5459 104.046C93.0777 101.514 94.5 98.0804 94.5 94.5V13.5C94.5 9.91958 93.0777 6.4858 90.5459 3.95406C88.0142 1.42232 84.5804 0 81 0L27 0ZM33.75 13.5H74.25C76.0402 13.5 77.7571 14.2112 79.023 15.477C80.2888 16.7429 81 18.4598 81 20.25V37.125C81 38.9152 80.2888 40.6321 79.023 41.898C77.7571 43.1638 76.0402 43.875 74.25 43.875H33.75C31.9598 43.875 30.2429 43.1638 28.977 41.898C27.7112 40.6321 27 38.9152 27 37.125V20.25C27 18.4598 27.7112 16.7429 28.977 15.477C30.2429 14.2112 31.9598 13.5 33.75 13.5ZM54 94.5C51.3407 94.5 48.7075 93.9762 46.2507 92.9586C43.7938 91.9409 41.5615 90.4493 39.6811 88.5689C37.8007 86.6885 36.3091 84.4562 35.2914 81.9993C34.2738 79.5425 33.75 76.9093 33.75 74.25C33.75 71.5907 34.2738 68.9575 35.2914 66.5007C36.3091 64.0438 37.8007 61.8115 39.6811 59.9311C41.5615 58.0507 43.7938 56.5591 46.2507 55.5414C48.7075 54.5238 51.3407 54 54 54C59.3706 54 64.5213 56.1335 68.3189 59.9311C72.1165 63.7287 74.25 68.8794 74.25 74.25C74.25 79.6206 72.1165 84.7713 68.3189 88.5689C64.5213 92.3665 59.3706 94.5 54 94.5V94.5Z" fill="#716B6B"/>
</g>
<defs>
<clipPath id="clip0_204_1999">
<rect width="108" height="108" fill="white"/>
</clipPath>
</defs>
</svg>
